<?xml version="1.0" encoding="utf-8"?>
<!-- Generator: Adobe Illustrator 24.3.0, SVG Export Plug-In . SVG Version: 6.00 Build 0)  -->
<svg version="1.1" id="katman_1" xmlns="http://www.w3.org/2000/svg" xmlnsXlink="http://www.w3.org/1999/xlink" x="0px" y="0px"
	 viewBox="0 0 3022.7 1548.3" style="enable-background:new 0 0 3022.7 1548.3;" xmlSpace="preserve">
<style type="text/css">
	.st0{fill-rule:evenodd;clip-rule:evenodd;fill:#293F41;}
	.st1{fill-rule:evenodd;clip-rule:evenodd;fill:#82B6A1;}
	.st2{fill:#293F41;}
</style>
<g>
	<path class="st0" d="M877.7,703.3c-27.2,0-50.1,10-68.7,24.3v-22.9h-63v244.9h65.9V793.5c8.6-12.9,31.5-30.1,58.7-30.1
		c10,0,18.6,1.4,25.8,4.3v-63C890.6,703.3,884.9,703.3,877.7,703.3 M307.8,875.1c17.2,15.8,41.5,24.3,67.3,24.3
		c17.2,0,31.5-8.6,31.5-20c0-37.2-117.4-24.3-117.4-103.1c0-47.3,45.8-75.9,93.1-75.9c31.5,0,65.9,11.5,83.1,24.3L435.3,772
		c-12.9-8.6-28.6-17.2-47.3-17.2c-18.6,0-32.9,7.2-32.9,20c0,31.5,117.4,18.6,117.4,104.5c0,47.3-45.8,75.9-97.4,75.9
		c-34.4,0-68.7-11.5-97.4-32.9L307.8,875.1z M718.8,825c0-68.7-47.3-124.6-114.6-124.6c-73,0-118.8,60.1-118.8,127.4
		c0,77.3,54.4,127.4,127.4,127.4c37.2,0,75.9-15.8,100.2-44.4l-37.2-37.2c-11.5,12.9-34.4,28.6-61.6,28.6c-34.4,0-63-24.3-65.9-58.7
		h169C717.3,837.9,718.8,832.1,718.8,825 M551.2,796.3c2.9-22.9,25.8-43,51.5-43c27.2,0,45.8,21.5,48.7,43H551.2z M1052.4,855
		l67.3-150.4h67.3l-111.7,244.9h-45.8L917.8,704.7h68.7L1052.4,855z M1242.9,590.1c22.9,0,43,18.6,43,41.5c0,22.9-18.6,41.5-43,41.5
		s-43-18.6-43-41.5C1199.9,608.8,1218.5,590.1,1242.9,590.1 M1209.9,704.7h65.9v244.9h-65.9V704.7z M1545,899.4
		c-28.6,38.7-64.4,54.4-110.3,54.4c-75.9,0-130.3-57.3-130.3-127.4c0-71.6,57.3-127.4,131.7-127.4c41.5,0,80.2,20,103.1,48.7
		l-45.8,41.5c-12.9-17.2-32.9-28.6-55.8-28.6c-37.2,0-65.9,30.1-65.9,67.3c0,38.7,27.2,67.3,67.3,67.3c27.2,0,47.3-15.8,58.7-32.9
		L1545,899.4z M1782.7,910.9c-22.9,28.6-63,44.4-100.2,44.4c-73,0-127.4-50.1-127.4-127.4c0-68.7,45.8-127.4,118.8-127.4
		c67.3,0,114.6,57.3,114.6,124.6c0,7.2,0,12.9-1.4,18.6h-169c2.9,34.4,31.5,58.7,65.9,58.7c27.2,0,50.1-15.8,61.6-28.6L1782.7,910.9
		z M1721.1,796.3c-1.4-21.5-21.5-43-48.7-43c-27.2,0-48.7,20-51.5,43H1721.1z M1814.2,949.5V704.7h63v20
		c18.6-15.8,41.5-24.3,68.7-24.3c34.4,0,64.4,15.8,84.5,40.1c15.8,18.6,25.8,44.4,25.8,85.9V951h-65.9V820.7
		c0-24.3-5.7-37.2-14.3-45.8s-21.5-14.3-37.2-14.3c-27.2,0-50.1,17.2-58.7,30.1v158.9H1814.2z"/>
	<path class="st1" d="M2223.7,700.4c-77.3,0-143.2,63-143.2,141.8c0,41.5,17.2,78.8,44.4,106c10,10,25.8,10,37.2,1.4
		c15.8-12.9,37.2-20,61.6-20c24.3,0,44.4,7.2,61.6,20c11.5,8.6,27.2,7.2,37.2-2.9c27.2-25.8,44.4-63,44.4-104.5
		C2365.5,764.8,2302.5,700.4,2223.7,700.4 M2222.3,915.2c-41.5,0-71.6-31.5-71.6-71.6s28.6-71.6,71.6-71.6s71.6,32.9,71.6,71.6
		C2293.9,882.3,2265.2,915.2,2222.3,915.2"/>
	<path class="st0" d="M2494.3,949.6h-48.7l-97.4-244.9h65.9l53,140.3l53-140.3h54.4l51.5,140.3l53-140.3h65.9l-97.4,244.9h-48.7
		l-51.5-138.9L2494.3,949.6z"/>
</g>
<path class="st2" d="M2709.1,919.5v4.3h-8.6v25.8h-5.7v-25.8h-8.6v-4.3H2709.1z M2729.2,938.1l11.5-18.6h4.3v30.1h-5.7v-17.2
	l-8.6,12.9h-4.3l-7.2-12.9v17.2h-5.7v-30.1h4.3L2729.2,938.1z"/>
</svg>
